<svg width="0" height="0" class="hidden">
  <symbol xmlns="http://www.w3.org/2000/svg" fill="none" stroke="#fff" stroke-width="2" stroke-linecap="round" stroke-linejoin="round" viewBox="0 0 24 24" id="chevron-down">
    <polyline points="6 9 12 15 18 9"></polyline>
  </symbol>
  <symbol xmlns="http://www.w3.org/2000/svg" viewBox="0 0 24 24" id="home">
    <path d="M3 13h1v7c0 1.103.897 2 2 2h12c1.103 0 2-.897 2-2v-7h1a1 1 0 0 0 .707-1.707l-9-9a.999.999 0 0 0-1.414 0l-9 9A1 1 0 0 0 3 13zm7 7v-5h4v5h-4zm2-15.586 6 6V15l.001 5H16v-5c0-1.103-.897-2-2-2h-4c-1.103 0-2 .897-2 2v5H6v-9.586l6-6z"></path>
  </symbol>
  <symbol xmlns="http://www.w3.org/2000/svg" fill="none" stroke="#fff" stroke-width="2" stroke-linecap="round" stroke-linejoin="round" viewBox="0 0 24 24" id="mail">
    <path d="M4 4h16c1.1 0 2 .9 2 2v12c0 1.1-.9 2-2 2H4c-1.1 0-2-.9-2-2V6c0-1.1.9-2 2-2z"></path>
    <polyline points="22,6 12,13 2,6"></polyline>
  </symbol>
  <symbol xmlns="http://www.w3.org/2000/svg" fill="none" stroke="#fff" stroke-width="2" stroke-linecap="round" stroke-linejoin="round" viewBox="0 0 24 24" id="message-circle">
    <path d="M21 11.5a8.38 8.38 0 0 1-.9 3.8 8.5 8.5 0 0 1-7.6 4.7 8.38 8.38 0 0 1-3.8-.9L3 21l1.9-5.7a8.38 8.38 0 0 1-.9-3.8 8.5 8.5 0 0 1 4.7-7.6 8.38 8.38 0 0 1 3.8-.9h.5a8.48 8.48 0 0 1 8 8v.5z"></path>
  </symbol>
  <symbol xmlns="http://www.w3.org/2000/svg" fill="none" stroke="#fff" stroke-width="2" stroke-linecap="round" stroke-linejoin="round" viewBox="0 0 24 24" id="menu">
    <line x1="3" y1="12" x2="21" y2="12"></line>
    <line x1="3" y1="6" x2="21" y2="6"></line>
    <line x1="3" y1="18" x2="21" y2="18"></line>
  </symbol>
  <symbol xmlns="http://www.w3.org/2000/svg" fill="none" stroke="#fff" stroke-width="2" stroke-linecap="round" stroke-linejoin="round" viewBox="0 0 24 24" id="x">
    <line x1="18" y1="6" x2="6" y2="18"></line>
    <line x1="6" y1="6" x2="18" y2="18"></line>
  </symbol>
</svg>